<svg width="520" height="644" viewBox="0 0 520 644" fill="none" xmlns="http://www.w3.org/2000/svg">
<rect width="520" height="644" fill="#1F1F1F"/>
<path d="M0 0H520V644H0V0Z" fill="#1F9AFF"/>
<path d="M274.807 204.505C270.556 194.546 283.603 179.613 290 179.212C288.801 178.409 280.404 179.613 275.606 187.643C269.609 197.68 276.006 207.315 274.807 204.505Z" fill="#FFD1AF" stroke="#FFD1AF" stroke-linecap="round"/>
<path d="M310.143 193.346C352.814 208.55 377.471 222.107 383.951 258.121C394.059 314.303 364.05 306.847 370.505 319.935C375.67 330.404 382.228 345.921 382.228 345.921C382.228 345.921 382.298 353.171 372.487 361.269C364.885 367.543 365.333 365.81 359.18 376.052C352.562 387.068 355.738 398.569 340.514 409.29C318.882 424.522 300.338 398.155 276.03 408.728C250.391 419.88 247.685 455.877 252.765 469.953" stroke="#FFD1AF" stroke-width="7"/>
<path d="M107.032 213.248H130.6V217.808H107.032V213.248ZM111.832 207.68H125.896V212H111.832V207.68ZM105.304 222.608C107.544 222.512 110.12 222.4 113.032 222.272C115.944 222.144 119.016 222 122.248 221.84C125.48 221.68 128.68 221.52 131.848 221.36L131.8 226.448C128.792 226.64 125.752 226.832 122.68 227.024C119.64 227.216 116.712 227.376 113.896 227.504C111.08 227.664 108.536 227.808 106.264 227.936L105.304 222.608ZM108.856 218.576L113.752 217.28C114.104 217.888 114.408 218.592 114.664 219.392C114.92 220.16 115.096 220.816 115.192 221.36L110.056 222.896C110.024 222.32 109.88 221.632 109.624 220.832C109.4 220 109.144 219.248 108.856 218.576ZM124.024 217.04L129.496 218.288C129.08 219.088 128.728 219.824 128.44 220.496C128.184 221.168 127.928 221.776 127.672 222.32L122.872 221.168C123.064 220.528 123.272 219.824 123.496 219.056C123.72 218.288 123.896 217.616 124.024 217.04ZM118.744 184.88H128.92V190.16H118.744V184.88ZM105.688 184.832L111.448 186.608V198.368H105.688V184.832ZM127.432 184.88H132.808C132.808 184.88 132.792 185.12 132.76 185.6C132.76 186.08 132.744 186.496 132.712 186.848C132.648 189.536 132.552 191.776 132.424 193.568C132.328 195.36 132.184 196.768 131.992 197.792C131.8 198.784 131.544 199.488 131.224 199.904C130.872 200.416 130.504 200.784 130.12 201.008C129.736 201.232 129.288 201.408 128.776 201.536C128.36 201.632 127.864 201.712 127.288 201.776C126.712 201.808 126.088 201.808 125.416 201.776C125.384 200.944 125.256 200.032 125.032 199.04C124.808 198.048 124.52 197.2 124.168 196.496C124.52 196.56 124.808 196.608 125.032 196.64C125.256 196.64 125.464 196.64 125.656 196.64C126.104 196.64 126.44 196.464 126.664 196.112C126.792 195.888 126.904 195.424 127 194.72C127.096 194.016 127.176 192.944 127.24 191.504C127.304 190.032 127.368 188.08 127.432 185.648V184.88ZM103.96 197.504C105.528 197.024 107.4 196.4 109.576 195.632C111.784 194.832 114.04 194 116.344 193.136L117.4 197.888C115.544 198.784 113.64 199.68 111.688 200.576C109.768 201.44 107.96 202.256 106.264 203.024L103.96 197.504ZM114.952 182.912L119.368 186.896C117.864 187.856 116.216 188.736 114.424 189.536C112.664 190.304 110.984 190.96 109.384 191.504C109.256 190.928 109.016 190.24 108.664 189.44C108.312 188.64 107.96 187.968 107.608 187.424C108.952 186.848 110.28 186.16 111.592 185.36C112.936 184.528 114.056 183.712 114.952 182.912ZM112.744 191.552L116.872 189.488C117.704 190.768 118.488 192.192 119.224 193.76C119.96 195.296 120.488 196.64 120.808 197.792L116.392 200.096C116.136 198.912 115.656 197.52 114.952 195.92C114.248 194.32 113.512 192.864 112.744 191.552ZM133.432 188.144H139.768V214.736H133.432V188.144ZM141.784 183.872H148.36V220.64C148.36 222.368 148.168 223.728 147.784 224.72C147.432 225.712 146.776 226.48 145.816 227.024C144.856 227.568 143.656 227.92 142.216 228.08C140.776 228.272 139.112 228.368 137.224 228.368C137.096 227.44 136.84 226.304 136.456 224.96C136.072 223.616 135.656 222.464 135.208 221.504C136.36 221.536 137.464 221.568 138.52 221.6C139.576 221.6 140.312 221.6 140.728 221.6C141.112 221.6 141.384 221.536 141.544 221.408C141.704 221.248 141.784 220.976 141.784 220.592V183.872ZM115.864 209.792H121.96V223.616H115.864V209.792ZM120.472 187.856H125.176V189.968C125.176 191.088 125.096 192.304 124.936 193.616C124.776 194.896 124.424 196.16 123.88 197.408C123.368 198.656 122.552 199.808 121.432 200.864C121.016 200.32 120.376 199.728 119.512 199.088C118.68 198.416 117.944 197.92 117.304 197.6C118.232 196.832 118.92 196 119.368 195.104C119.816 194.176 120.104 193.248 120.232 192.32C120.392 191.36 120.472 190.496 120.472 189.728V187.856ZM115.672 200.096H119.32V201.392H121.432V203.312C119.832 204.784 117.88 206.272 115.576 207.776C113.304 209.28 110.488 210.736 107.128 212.144C106.904 211.632 106.568 211.056 106.12 210.416C105.672 209.776 105.192 209.152 104.68 208.544C104.2 207.936 103.752 207.456 103.336 207.104C106.216 206.176 108.68 205.104 110.728 203.888C112.808 202.64 114.456 201.376 115.672 200.096ZM116.104 200.096H120.52C121.896 200.64 123.336 201.296 124.84 202.064C126.376 202.8 127.832 203.568 129.208 204.368C130.616 205.168 131.816 205.952 132.808 206.72L128.536 211.76C127.704 211.056 126.664 210.288 125.416 209.456C124.168 208.592 122.856 207.76 121.48 206.96C120.104 206.16 118.792 205.504 117.544 204.992H116.104V200.096ZM163.48 194.72H171.304V200.192H163.48V194.72ZM166.84 204.608H173.56V209.792H166.84V204.608ZM177.4 203.744H197.08V209.6H177.4V203.744ZM178.264 213.632H196.216V219.392H178.264V213.632ZM183.784 197.744H190.216V216.56H183.784V197.744ZM169.576 194.72H170.392L171.352 194.48L175.624 195.824C174.92 197.424 174.12 199.104 173.224 200.864C172.36 202.624 171.448 204.384 170.488 206.144C169.56 207.872 168.648 209.536 167.752 211.136L162.328 209.504C163.224 207.936 164.12 206.272 165.016 204.512C165.944 202.752 166.808 201.072 167.608 199.472C168.408 197.84 169.064 196.464 169.576 195.344V194.72ZM192.328 193.616L196.696 198.32C195 198.896 193.128 199.392 191.08 199.808C189.064 200.224 187.016 200.56 184.936 200.816C182.856 201.072 180.84 201.264 178.888 201.392C178.76 200.72 178.536 199.92 178.216 198.992C177.896 198.032 177.56 197.232 177.208 196.592C179.032 196.4 180.856 196.16 182.68 195.872C184.536 195.584 186.296 195.248 187.96 194.864C189.624 194.48 191.08 194.064 192.328 193.616ZM167.32 211.376C167.96 213.68 168.776 215.536 169.768 216.944C170.792 218.32 171.992 219.376 173.368 220.112C174.744 220.816 176.28 221.312 177.976 221.6C179.704 221.856 181.56 221.984 183.544 221.984C184.088 221.984 184.84 221.984 185.8 221.984C186.76 221.984 187.816 221.984 188.968 221.984C190.12 221.984 191.288 221.984 192.472 221.984C193.656 221.952 194.76 221.936 195.784 221.936C196.808 221.904 197.656 221.872 198.328 221.84C198.04 222.32 197.752 222.928 197.464 223.664C197.176 224.4 196.92 225.152 196.696 225.92C196.472 226.72 196.296 227.424 196.168 228.032H193.576H183.208C180.52 228.032 178.072 227.824 175.864 227.408C173.688 227.024 171.736 226.304 170.008 225.248C168.312 224.192 166.808 222.672 165.496 220.688C164.216 218.672 163.128 216.08 162.232 212.912L167.32 211.376ZM171.352 204.608H172.552L173.608 204.464L177.304 205.616C176.76 209.552 175.928 213.024 174.808 216.032C173.688 219.04 172.312 221.616 170.68 223.76C169.048 225.872 167.16 227.552 165.016 228.8C164.728 228.352 164.312 227.824 163.768 227.216C163.256 226.64 162.712 226.064 162.136 225.488C161.592 224.944 161.112 224.528 160.696 224.24C163.64 222.64 166.008 220.304 167.8 217.232C169.592 214.128 170.776 210.256 171.352 205.616V204.608ZM172.936 182.96H180.232V190.112H172.936V182.96ZM159.304 186.896H197.128V193.088H159.304V186.896ZM155.704 186.896H162.472V200.528C162.472 202.544 162.408 204.768 162.28 207.2C162.184 209.632 161.96 212.144 161.608 214.736C161.288 217.296 160.824 219.776 160.216 222.176C159.608 224.544 158.792 226.688 157.768 228.608C157.352 228.224 156.776 227.776 156.04 227.264C155.336 226.752 154.6 226.256 153.832 225.776C153.096 225.328 152.456 224.992 151.912 224.768C152.808 223.04 153.512 221.152 154.024 219.104C154.536 217.024 154.904 214.896 155.128 212.72C155.384 210.544 155.544 208.416 155.608 206.336C155.672 204.224 155.704 202.288 155.704 200.528V186.896ZM210.28 196.736H235.384V203.216H210.28V196.736ZM201.928 207.536H244.072V214.16H201.928V207.536ZM219.112 200.144H226.6V220.832C226.6 222.688 226.344 224.096 225.832 225.056C225.32 226.048 224.408 226.816 223.096 227.36C221.784 227.872 220.264 228.192 218.536 228.32C216.84 228.48 214.936 228.56 212.824 228.56C212.696 227.856 212.456 227.072 212.104 226.208C211.784 225.376 211.416 224.544 211 223.712C210.616 222.88 210.232 222.16 209.848 221.552C210.808 221.584 211.832 221.616 212.92 221.648C214.008 221.68 214.984 221.696 215.848 221.696C216.744 221.696 217.368 221.696 217.72 221.696C218.264 221.664 218.632 221.584 218.824 221.456C219.016 221.328 219.112 221.056 219.112 220.64V200.144ZM219.112 183.008H226.6V192.32H219.112V183.008ZM201.928 187.472H244.072V200.432H236.824V193.856H208.792V200.432H201.928V187.472Z" fill="white"/>
<path d="M104.42 153.98V148.909H128.312V153.98H119.406V178H113.327V153.98H104.42ZM132.134 178V156.182H138.185V178H132.134ZM135.173 153.369C134.274 153.369 133.502 153.071 132.858 152.474C132.223 151.868 131.906 151.144 131.906 150.301C131.906 149.468 132.223 148.753 132.858 148.156C133.502 147.55 134.274 147.247 135.173 147.247C136.073 147.247 136.84 147.55 137.474 148.156C138.118 148.753 138.44 149.468 138.44 150.301C138.44 151.144 138.118 151.868 137.474 152.474C136.84 153.071 136.073 153.369 135.173 153.369ZM149.083 165.386V178H143.032V156.182H148.799V160.031H149.055C149.538 158.762 150.347 157.759 151.484 157.02C152.62 156.272 153.998 155.898 155.617 155.898C157.132 155.898 158.453 156.229 159.58 156.892C160.707 157.555 161.583 158.502 162.208 159.733C162.833 160.955 163.146 162.413 163.146 164.108V178H157.094V165.188C157.104 163.852 156.763 162.811 156.072 162.062C155.38 161.305 154.429 160.926 153.217 160.926C152.402 160.926 151.683 161.101 151.058 161.452C150.442 161.802 149.959 162.313 149.609 162.986C149.268 163.649 149.093 164.449 149.083 165.386Z" fill="white"/>
<path d="M279.45 508C279.283 508 279.2 507.917 279.2 507.75V494.92C279.2 494.753 279.283 494.67 279.45 494.67H284.98C285.14 494.67 285.273 494.723 285.38 494.83L287.38 496.83C287.493 496.943 287.55 497.077 287.55 497.23V500.68C287.55 500.84 287.493 500.973 287.38 501.08L285.38 503.08C285.273 503.193 285.14 503.25 284.98 503.25H282.53V507.75C282.53 507.917 282.447 508 282.28 508H279.45ZM283.28 500.53C283.833 500.53 284.21 500.42 284.41 500.2C284.617 499.98 284.72 499.563 284.72 498.95C284.72 498.337 284.617 497.92 284.41 497.7C284.21 497.48 283.833 497.37 283.28 497.37C282.733 497.37 282.357 497.48 282.15 497.7C281.95 497.92 281.85 498.337 281.85 498.95C281.85 499.563 281.95 499.98 282.15 500.2C282.357 500.42 282.733 500.53 283.28 500.53ZM289.411 508C289.244 508 289.161 507.917 289.161 507.75V497.25C289.161 497.083 289.244 497 289.411 497H290.931C291.058 497 291.168 497.057 291.261 497.17L292.241 498.3L293.331 497.12C293.404 497.04 293.498 497 293.611 497H294.691C294.858 497 294.941 497.083 294.941 497.25V499.4C294.941 499.507 294.934 499.58 294.921 499.62C294.908 499.653 294.871 499.69 294.811 499.73L292.331 501.56V507.75C292.331 507.917 292.248 508 292.081 508H289.411ZM298.634 508C298.48 508 298.347 507.943 298.234 507.83L296.234 505.83C296.12 505.723 296.064 505.59 296.064 505.43V499.57C296.064 499.41 296.12 499.277 296.234 499.17L298.234 497.17C298.347 497.057 298.48 497 298.634 497H301.664C301.824 497 301.957 497.057 302.064 497.17L304.064 499.17C304.177 499.277 304.234 499.41 304.234 499.57V505.43C304.234 505.59 304.177 505.723 304.064 505.83L302.064 507.83C301.957 507.943 301.824 508 301.664 508H298.634ZM299.804 505.67H300.504C300.717 505.67 300.864 505.627 300.944 505.54C301.024 505.453 301.064 505.3 301.064 505.08V499.92C301.064 499.7 301.024 499.547 300.944 499.46C300.864 499.373 300.717 499.33 300.504 499.33H299.804C299.584 499.33 299.434 499.373 299.354 499.46C299.274 499.547 299.234 499.7 299.234 499.92V505.08C299.234 505.3 299.274 505.453 299.354 505.54C299.434 505.627 299.584 505.67 299.804 505.67ZM309.063 508C308.91 508 308.777 507.943 308.663 507.83L306.663 505.83C306.55 505.723 306.493 505.59 306.493 505.43V499.57C306.493 499.41 306.55 499.277 306.663 499.17L308.663 497.17C308.777 497.057 308.91 497 309.063 497H310.593C310.753 497 310.887 497.057 310.993 497.17L311.493 497.67V494.92C311.493 494.753 311.577 494.67 311.743 494.67H314.413C314.58 494.67 314.663 494.753 314.663 494.92V507.75C314.663 507.917 314.58 508 314.413 508H312.333C312.247 508 312.18 507.983 312.133 507.95C312.093 507.917 312.047 507.877 311.993 507.83L311.493 507.33L310.993 507.83C310.887 507.943 310.753 508 310.593 508H309.063ZM310.233 505.67H310.933C311.147 505.67 311.293 505.627 311.373 505.54C311.453 505.453 311.493 505.3 311.493 505.08V499.33H310.233C310.013 499.33 309.863 499.373 309.783 499.46C309.703 499.547 309.663 499.7 309.663 499.92V505.08C309.663 505.3 309.703 505.453 309.783 505.54C309.863 505.627 310.013 505.67 310.233 505.67ZM319.563 508C319.403 508 319.27 507.943 319.163 507.83L317.163 505.83C317.05 505.723 316.993 505.59 316.993 505.43V497.25C316.993 497.083 317.076 497 317.243 497H319.913C320.08 497 320.163 497.083 320.163 497.25V505.03C320.163 505.343 320.316 505.5 320.623 505.5H321.993V497.25C321.993 497.083 322.076 497 322.243 497H324.913C325.08 497 325.163 497.083 325.163 497.25V507.75C325.163 507.917 325.08 508 324.913 508H319.563ZM330.751 508C330.617 508 330.484 507.957 330.351 507.87L328.721 506.77L327.601 504.97C327.554 504.883 327.514 504.827 327.481 504.8C327.447 504.767 327.431 504.7 327.431 504.6V500.4C327.431 500.3 327.444 500.233 327.471 500.2C327.497 500.167 327.541 500.107 327.601 500.02L328.621 498.32L330.351 497.13C330.411 497.09 330.471 497.06 330.531 497.04C330.591 497.013 330.664 497 330.751 497H332.481C332.647 497 332.731 497.083 332.731 497.25V499.12C332.731 499.173 332.724 499.23 332.711 499.29C332.704 499.35 332.674 499.397 332.621 499.43L331.481 500L330.601 501.15V503.82L331.531 504.88L332.621 505.57C332.687 505.61 332.721 505.66 332.721 505.72C332.727 505.773 332.731 505.827 332.731 505.88V507.75C332.731 507.917 332.647 508 332.481 508H330.751ZM337.027 508C336.874 508 336.741 507.943 336.627 507.83L334.957 506.17C334.851 506.057 334.797 505.923 334.797 505.77V499.33H334.377C334.211 499.33 334.127 499.247 334.127 499.08V497.25C334.127 497.083 334.211 497 334.377 497H334.797V495.75C334.797 495.583 334.881 495.5 335.047 495.5H337.707C337.874 495.5 337.957 495.583 337.957 495.75V497H338.927C339.094 497 339.177 497.083 339.177 497.25V499.08C339.177 499.247 339.094 499.33 338.927 499.33H337.957V504.67C337.957 504.797 337.997 504.9 338.077 504.98L339.057 505.97C339.124 506.03 339.157 506.13 339.157 506.27V507.75C339.157 507.917 339.074 508 338.907 508H337.027ZM344.341 508C344.174 508 344.091 507.917 344.091 507.75V494.92C344.091 494.753 344.174 494.67 344.341 494.67H350.441C350.601 494.67 350.734 494.723 350.841 494.83L352.841 496.83C352.954 496.943 353.011 497.077 353.011 497.23V505.43C353.011 505.59 352.954 505.723 352.841 505.83L350.841 507.83C350.734 507.943 350.601 508 350.441 508H344.341ZM347.431 505.33H349.261C349.541 505.33 349.681 505.143 349.681 504.77V497.9C349.681 497.52 349.541 497.33 349.261 497.33H347.431V505.33ZM359.813 508C359.746 508 359.673 507.99 359.593 507.97C359.519 507.95 359.449 507.933 359.383 507.92L357.603 507.48L355.563 506.8C355.363 506.733 355.263 506.54 355.263 506.22V499.57C355.263 499.41 355.319 499.277 355.433 499.17L357.433 497.17C357.546 497.057 357.679 497 357.833 497H361.033C361.186 497 361.319 497.057 361.433 497.17L363.433 499.17C363.546 499.277 363.603 499.41 363.603 499.57V503.67H358.233L358.163 505L359.583 505.47L362.133 505.65C362.246 505.67 362.303 505.747 362.303 505.88V507.75C362.303 507.917 362.219 508 362.053 508H359.813ZM359.413 502.1H359.603C359.929 502.1 360.189 501.977 360.383 501.73C360.583 501.483 360.683 501.15 360.683 500.73V500.53C360.683 500.117 360.583 499.787 360.383 499.54C360.189 499.293 359.929 499.17 359.603 499.17H359.403C359.083 499.17 358.826 499.293 358.633 499.54C358.446 499.787 358.353 500.117 358.353 500.53V500.73C358.353 501.15 358.446 501.483 358.633 501.73C358.826 501.977 359.086 502.1 359.413 502.1ZM365.624 508C365.458 508 365.374 507.917 365.374 507.75V506.13C365.374 505.977 365.424 505.877 365.524 505.83L367.564 504.62V503.58L365.524 502.48C365.424 502.42 365.374 502.317 365.374 502.17V498.98C365.374 498.907 365.384 498.847 365.404 498.8C365.431 498.753 365.468 498.713 365.514 498.68L367.644 497.12C367.718 497.067 367.778 497.033 367.824 497.02C367.871 497.007 367.918 497 367.964 497H370.394C370.561 497 370.644 497.083 370.644 497.25V498.82C370.644 498.933 370.634 499.01 370.614 499.05C370.601 499.09 370.568 499.123 370.514 499.15L368.624 500.17V501.33L370.644 502.33C370.758 502.377 370.814 502.477 370.814 502.63V505.7C370.814 505.867 370.758 506 370.644 506.1L368.514 507.87C368.408 507.957 368.274 508 368.114 508H365.624ZM373.161 508C372.994 508 372.911 507.917 372.911 507.75V497.25C372.911 497.083 372.994 497 373.161 497H375.821C375.988 497 376.071 497.083 376.071 497.25V507.75C376.071 507.917 375.988 508 375.821 508H373.161ZM373.111 496.17C372.978 496.17 372.911 496.103 372.911 495.97V494.7C372.911 494.567 372.978 494.5 373.111 494.5H375.891C376.011 494.5 376.071 494.567 376.071 494.7V495.97C376.071 496.103 376.011 496.17 375.891 496.17H373.111ZM381.219 511.33C381.053 511.33 380.969 511.247 380.969 511.08V509.52C380.969 509.387 381.019 509.313 381.119 509.3L382.579 508.93L383.619 508.38C383.719 508.327 383.769 508.223 383.769 508.07V506.43L382.829 507.3C382.716 507.413 382.583 507.47 382.429 507.47L380.729 507.53C380.576 507.53 380.443 507.477 380.329 507.37L378.499 505.53C378.386 505.423 378.329 505.29 378.329 505.13V499.57C378.329 499.41 378.386 499.277 378.499 499.17L380.499 497.17C380.613 497.057 380.746 497 380.899 497H386.249C386.416 497 386.499 497.083 386.499 497.25V509.27C386.499 509.45 386.443 509.583 386.329 509.67L384.999 510.52L383.319 511.22C383.219 511.26 383.143 511.287 383.089 511.3C383.043 511.32 382.963 511.33 382.849 511.33H381.219ZM382.069 505.37H382.769C382.983 505.37 383.129 505.327 383.209 505.24C383.289 505.153 383.329 505 383.329 504.78V499.33H382.069C381.849 499.33 381.699 499.373 381.619 499.46C381.539 499.547 381.499 499.7 381.499 499.92V504.78C381.499 505 381.539 505.153 381.619 505.24C381.699 505.327 381.849 505.37 382.069 505.37ZM389.079 508C388.912 508 388.829 507.917 388.829 507.75V497.25C388.829 497.083 388.912 497 389.079 497H394.429C394.582 497 394.716 497.057 394.829 497.17L396.829 499.17C396.942 499.277 396.999 499.41 396.999 499.57V507.75C396.999 507.917 396.916 508 396.749 508H394.079C393.912 508 393.829 507.917 393.829 507.75V499.97C393.829 499.657 393.672 499.5 393.359 499.5H391.999V507.75C391.999 507.917 391.916 508 391.749 508H389.079Z" fill="#FFD1AF"/>
<path d="M178.45 147C178.283 147 178.2 146.917 178.2 146.75V135.9C178.2 135.747 178.257 135.613 178.37 135.5L180.03 133.83C180.143 133.723 180.277 133.67 180.43 133.67H182.72C182.873 133.67 183.007 133.723 183.12 133.83L184.8 135.52H185.27L186.95 133.83C187.063 133.723 187.197 133.67 187.35 133.67H189.63C189.79 133.67 189.923 133.723 190.03 133.83L191.7 135.5C191.813 135.613 191.87 135.747 191.87 135.9V146.75C191.87 146.917 191.787 147 191.62 147H188.78C188.613 147 188.53 146.917 188.53 146.75V136.33H186.7V146.75C186.7 146.917 186.617 147 186.45 147H183.62C183.453 147 183.37 146.917 183.37 146.75V136.33H181.53V146.75C181.53 146.917 181.447 147 181.28 147H178.45ZM196.844 147C196.684 147 196.551 146.943 196.444 146.83L194.444 144.83C194.331 144.723 194.274 144.59 194.274 144.43V136.25C194.274 136.083 194.358 136 194.524 136H197.194C197.361 136 197.444 136.083 197.444 136.25V144.03C197.444 144.343 197.598 144.5 197.904 144.5H199.274V136.25C199.274 136.083 199.358 136 199.524 136H202.194C202.361 136 202.444 136.083 202.444 136.25V146.75C202.444 146.917 202.361 147 202.194 147H196.844ZM204.912 147C204.745 147 204.662 146.917 204.662 146.75V133.92C204.662 133.753 204.745 133.67 204.912 133.67H207.582C207.749 133.67 207.832 133.753 207.832 133.92V146.75C207.832 146.917 207.749 147 207.582 147H204.912ZM212.336 147C212.183 147 212.049 146.943 211.936 146.83L210.266 145.17C210.159 145.057 210.106 144.923 210.106 144.77V138.33H209.686C209.519 138.33 209.436 138.247 209.436 138.08V136.25C209.436 136.083 209.519 136 209.686 136H210.106V134.75C210.106 134.583 210.189 134.5 210.356 134.5H213.016C213.183 134.5 213.266 134.583 213.266 134.75V136H214.236C214.403 136 214.486 136.083 214.486 136.25V138.08C214.486 138.247 214.403 138.33 214.236 138.33H213.266V143.67C213.266 143.797 213.306 143.9 213.386 143.98L214.366 144.97C214.433 145.03 214.466 145.13 214.466 145.27V146.75C214.466 146.917 214.383 147 214.216 147H212.336ZM216.536 147C216.369 147 216.286 146.917 216.286 146.75V136.25C216.286 136.083 216.369 136 216.536 136H219.196C219.363 136 219.446 136.083 219.446 136.25V146.75C219.446 146.917 219.363 147 219.196 147H216.536ZM216.486 135.17C216.353 135.17 216.286 135.103 216.286 134.97V133.7C216.286 133.567 216.353 133.5 216.486 133.5H219.266C219.386 133.5 219.446 133.567 219.446 133.7V134.97C219.446 135.103 219.386 135.17 219.266 135.17H216.486ZM222.024 147C221.858 147 221.774 146.917 221.774 146.75V136.25C221.774 136.083 221.858 136 222.024 136H226.574C226.728 136 226.861 136.057 226.974 136.17L228.204 137.4H228.574L229.804 136.17C229.918 136.057 230.051 136 230.204 136H232.374C232.528 136 232.661 136.057 232.774 136.17L234.774 138.17C234.888 138.277 234.944 138.41 234.944 138.57V146.75C234.944 146.917 234.861 147 234.694 147H232.024C231.858 147 231.774 146.917 231.774 146.75V138.92C231.774 138.64 231.634 138.5 231.354 138.5H229.944V146.75C229.944 146.917 229.861 147 229.694 147H227.024C226.858 147 226.774 146.917 226.774 146.75V138.92C226.774 138.64 226.634 138.5 226.354 138.5H224.944V146.75C224.944 146.917 224.861 147 224.694 147H222.024ZM241.762 147C241.695 147 241.622 146.99 241.542 146.97C241.469 146.95 241.399 146.933 241.332 146.92L239.552 146.48L237.512 145.8C237.312 145.733 237.212 145.54 237.212 145.22V138.57C237.212 138.41 237.269 138.277 237.382 138.17L239.382 136.17C239.495 136.057 239.629 136 239.782 136H242.982C243.135 136 243.269 136.057 243.382 136.17L245.382 138.17C245.495 138.277 245.552 138.41 245.552 138.57V142.67H240.182L240.112 144L241.532 144.47L244.082 144.65C244.195 144.67 244.252 144.747 244.252 144.88V146.75C244.252 146.917 244.169 147 244.002 147H241.762ZM241.362 141.1H241.552C241.879 141.1 242.139 140.977 242.332 140.73C242.532 140.483 242.632 140.15 242.632 139.73V139.53C242.632 139.117 242.532 138.787 242.332 138.54C242.139 138.293 241.879 138.17 241.552 138.17H241.352C241.032 138.17 240.775 138.293 240.582 138.54C240.395 138.787 240.302 139.117 240.302 139.53V139.73C240.302 140.15 240.395 140.483 240.582 140.73C240.775 140.977 241.035 141.1 241.362 141.1ZM250.134 147C249.98 147 249.847 146.943 249.734 146.83L247.734 144.83C247.62 144.723 247.564 144.59 247.564 144.43V138.57C247.564 138.41 247.62 138.277 247.734 138.17L249.734 136.17C249.847 136.057 249.98 136 250.134 136H251.664C251.824 136 251.957 136.057 252.064 136.17L252.564 136.67V133.92C252.564 133.753 252.647 133.67 252.814 133.67H255.484C255.65 133.67 255.734 133.753 255.734 133.92V146.75C255.734 146.917 255.65 147 255.484 147H253.404C253.317 147 253.25 146.983 253.204 146.95C253.164 146.917 253.117 146.877 253.064 146.83L252.564 146.33L252.064 146.83C251.957 146.943 251.824 147 251.664 147H250.134ZM251.304 144.67H252.004C252.217 144.67 252.364 144.627 252.444 144.54C252.524 144.453 252.564 144.3 252.564 144.08V138.33H251.304C251.084 138.33 250.934 138.373 250.854 138.46C250.774 138.547 250.734 138.7 250.734 138.92V144.08C250.734 144.3 250.774 144.453 250.854 144.54C250.934 144.627 251.084 144.67 251.304 144.67ZM258.313 147C258.147 147 258.063 146.917 258.063 146.75V136.25C258.063 136.083 258.147 136 258.313 136H260.973C261.14 136 261.223 136.083 261.223 136.25V146.75C261.223 146.917 261.14 147 260.973 147H258.313ZM258.263 135.17C258.13 135.17 258.063 135.103 258.063 134.97V133.7C258.063 133.567 258.13 133.5 258.263 133.5H261.043C261.163 133.5 261.223 133.567 261.223 133.7V134.97C261.223 135.103 261.163 135.17 261.043 135.17H258.263ZM266.052 147C265.898 147 265.765 146.943 265.652 146.83L263.652 144.83C263.538 144.723 263.482 144.59 263.482 144.43V138.57C263.482 138.41 263.538 138.277 263.652 138.17L265.652 136.17C265.765 136.057 265.898 136 266.052 136H271.402C271.568 136 271.652 136.083 271.652 136.25V146.75C271.652 146.917 271.568 147 271.402 147H269.322C269.235 147 269.168 146.983 269.122 146.95C269.082 146.917 269.035 146.877 268.982 146.83L268.482 146.33L267.982 146.83C267.875 146.943 267.742 147 267.582 147H266.052ZM267.222 144.67H267.922C268.135 144.67 268.282 144.627 268.362 144.54C268.442 144.453 268.482 144.3 268.482 144.08V138.33H267.222C267.002 138.33 266.852 138.373 266.772 138.46C266.692 138.547 266.652 138.7 266.652 138.92V144.08C266.652 144.3 266.692 144.453 266.772 144.54C266.852 144.627 267.002 144.67 267.222 144.67ZM277.345 147C277.178 147 277.095 146.917 277.095 146.75V133.92C277.095 133.753 277.178 133.67 277.345 133.67H283.445C283.605 133.67 283.738 133.723 283.845 133.83L285.845 135.83C285.958 135.943 286.015 136.077 286.015 136.23V144.43C286.015 144.59 285.958 144.723 285.845 144.83L283.845 146.83C283.738 146.943 283.605 147 283.445 147H277.345ZM280.435 144.33H282.265C282.545 144.33 282.685 144.143 282.685 143.77V136.9C282.685 136.52 282.545 136.33 282.265 136.33H280.435V144.33ZM292.817 147C292.75 147 292.677 146.99 292.597 146.97C292.523 146.95 292.453 146.933 292.387 146.92L290.607 146.48L288.567 145.8C288.367 145.733 288.267 145.54 288.267 145.22V138.57C288.267 138.41 288.323 138.277 288.437 138.17L290.437 136.17C290.55 136.057 290.683 136 290.837 136H294.037C294.19 136 294.323 136.057 294.437 136.17L296.437 138.17C296.55 138.277 296.607 138.41 296.607 138.57V142.67H291.237L291.167 144L292.587 144.47L295.137 144.65C295.25 144.67 295.307 144.747 295.307 144.88V146.75C295.307 146.917 295.223 147 295.057 147H292.817ZM292.417 141.1H292.607C292.933 141.1 293.193 140.977 293.387 140.73C293.587 140.483 293.687 140.15 293.687 139.73V139.53C293.687 139.117 293.587 138.787 293.387 138.54C293.193 138.293 292.933 138.17 292.607 138.17H292.407C292.087 138.17 291.83 138.293 291.637 138.54C291.45 138.787 291.357 139.117 291.357 139.53V139.73C291.357 140.15 291.45 140.483 291.637 140.73C291.83 140.977 292.09 141.1 292.417 141.1ZM298.628 147C298.462 147 298.378 146.917 298.378 146.75V145.13C298.378 144.977 298.428 144.877 298.528 144.83L300.568 143.62V142.58L298.528 141.48C298.428 141.42 298.378 141.317 298.378 141.17V137.98C298.378 137.907 298.388 137.847 298.408 137.8C298.435 137.753 298.472 137.713 298.518 137.68L300.648 136.12C300.722 136.067 300.782 136.033 300.828 136.02C300.875 136.007 300.922 136 300.968 136H303.398C303.565 136 303.648 136.083 303.648 136.25V137.82C303.648 137.933 303.638 138.01 303.618 138.05C303.605 138.09 303.572 138.123 303.518 138.15L301.628 139.17V140.33L303.648 141.33C303.762 141.377 303.818 141.477 303.818 141.63V144.7C303.818 144.867 303.762 145 303.648 145.1L301.518 146.87C301.412 146.957 301.278 147 301.118 147H298.628ZM306.165 147C305.998 147 305.915 146.917 305.915 146.75V136.25C305.915 136.083 305.998 136 306.165 136H308.825C308.992 136 309.075 136.083 309.075 136.25V146.75C309.075 146.917 308.992 147 308.825 147H306.165ZM306.115 135.17C305.982 135.17 305.915 135.103 305.915 134.97V133.7C305.915 133.567 305.982 133.5 306.115 133.5H308.895C309.015 133.5 309.075 133.567 309.075 133.7V134.97C309.075 135.103 309.015 135.17 308.895 135.17H306.115ZM314.223 150.33C314.056 150.33 313.973 150.247 313.973 150.08V148.52C313.973 148.387 314.023 148.313 314.123 148.3L315.583 147.93L316.623 147.38C316.723 147.327 316.773 147.223 316.773 147.07V145.43L315.833 146.3C315.72 146.413 315.586 146.47 315.433 146.47L313.733 146.53C313.58 146.53 313.446 146.477 313.333 146.37L311.503 144.53C311.39 144.423 311.333 144.29 311.333 144.13V138.57C311.333 138.41 311.39 138.277 311.503 138.17L313.503 136.17C313.616 136.057 313.75 136 313.903 136H319.253C319.42 136 319.503 136.083 319.503 136.25V148.27C319.503 148.45 319.446 148.583 319.333 148.67L318.003 149.52L316.323 150.22C316.223 150.26 316.146 150.287 316.093 150.3C316.046 150.32 315.966 150.33 315.853 150.33H314.223ZM315.073 144.37H315.773C315.986 144.37 316.133 144.327 316.213 144.24C316.293 144.153 316.333 144 316.333 143.78V138.33H315.073C314.853 138.33 314.703 138.373 314.623 138.46C314.543 138.547 314.503 138.7 314.503 138.92V143.78C314.503 144 314.543 144.153 314.623 144.24C314.703 144.327 314.853 144.37 315.073 144.37ZM322.083 147C321.916 147 321.833 146.917 321.833 146.75V136.25C321.833 136.083 321.916 136 322.083 136H327.433C327.586 136 327.719 136.057 327.833 136.17L329.833 138.17C329.946 138.277 330.003 138.41 330.003 138.57V146.75C330.003 146.917 329.919 147 329.753 147H327.083C326.916 147 326.833 146.917 326.833 146.75V138.97C326.833 138.657 326.676 138.5 326.363 138.5H325.003V146.75C325.003 146.917 324.919 147 324.753 147H322.083Z" fill="#FFD1AF"/>
<ellipse cx="309.5" cy="193" rx="2.5" ry="3" fill="#FFD1AF"/>
<path d="M331.85 300.666C331.85 300.666 343.832 314.525 351.218 317.835" stroke="#FFD1AF" stroke-width="7" stroke-linecap="round"/>
<circle cx="224.5" cy="300.5" r="34" fill="black" fill-opacity="0.4" stroke="#FFD1AF" stroke-width="7"/>
<circle cx="224.5" cy="300.5" r="40" stroke="#FFD1AF"/>
<path d="M227 257C227.3 254.674 232 248.538 233 247" stroke="#FFD1AF" stroke-width="7"/>
<path d="M243.666 260.539C244.841 256.412 247.907 252.028 249.308 249.823" stroke="#FFD1AF" stroke-width="7"/>
<path d="M200.969 350.835C198.002 361.235 193.882 386.53 201.139 404.512C208.396 422.495 211.913 430.191 212.764 431.791C204.471 424.722 187.659 406.717 186.76 391.248C185.86 375.778 184.283 381.725 183.606 386.632C181.606 397.975 180.541 422.977 192.283 432.239C198.048 436.787 202.312 439.49 205.312 441.022C207.212 441.68 209.06 442.259 210.83 442.759C210.173 442.939 208.422 442.61 205.312 441.022C176.99 431.215 137.07 403.925 169.183 359.15C175.121 351.969 187.722 337.929 190.627 339.22C194.259 340.834 203.064 341.468 200.969 350.835Z" fill="#FFD1AF" stroke="#FFD1AF" stroke-width="3"/>
<path d="M120.494 291.144C142.16 257.376 169.028 253.952 176.316 254.668C176.779 254.706 176.101 254.89 177.312 256.908C178.28 258.522 176.742 259.03 175.852 259.082C171.839 258.66 166.054 262.876 157.268 273.763C142.206 292.431 148.831 285.544 125.2 311.765C109.222 329.493 88.4492 334.129 78.2338 335.491C75.6643 336.359 73.7584 336.448 72.509 336.274C70.8693 336.044 73.3402 336.143 78.2338 335.491C86.0751 332.841 100.096 322.936 120.494 291.144Z" fill="#FFD1AF" stroke="#FFD1AF" stroke-width="3"/>
<path d="M177.386 262.318C178.547 261.096 180.674 258.187 179.9 256.333C179.126 254.479 177.895 253.066 177.376 252.591" stroke="#FFD1AF"/>
<path d="M360 487H398V445" stroke="#FFD1AF" stroke-width="4" stroke-linecap="round"/>
<path d="M333 487H210" stroke="#FFD1AF" stroke-width="4" stroke-linecap="round"/>
<path d="M398 424L398 321" stroke="#FFD1AF" stroke-width="4" stroke-linecap="round"/>
<path d="M398 312V306" stroke="#FFD1AF" stroke-width="4" stroke-linecap="round"/>
<path d="M133 349C133 347.895 132.105 347 131 347C129.895 347 129 347.895 129 349H131H133ZM141.667 397C141.667 391.109 136.891 386.333 131 386.333C125.109 386.333 120.333 391.109 120.333 397C120.333 402.891 125.109 407.667 131 407.667C136.891 407.667 141.667 402.891 141.667 397ZM131 349H129V397H131H133V349H131Z" fill="#FFD1AF"/>
<path d="M131 342V335" stroke="#FFD1AF" stroke-width="4" stroke-linecap="round"/>
<path d="M180 157H195" stroke="#FFD1AF" stroke-width="4" stroke-linecap="round"/>
<path d="M356.667 157C356.667 151.109 351.891 146.333 346 146.333C340.109 146.333 335.333 151.109 335.333 157C335.333 162.891 340.109 167.667 346 167.667C351.891 167.667 356.667 162.891 356.667 157ZM208 155C206.895 155 206 155.895 206 157C206 158.105 206.895 159 208 159V157V155ZM346 157V155L208 155V157V159L346 159V157Z" fill="#FFD1AF"/>
<path d="M314.777 261.15C321.939 239.188 348.714 226.307 355.169 225.092C361.625 223.797 364.853 223.203 365.66 223.068C364.584 218.076 365.983 215.459 380.186 244.926C394.388 274.392 382.741 299.164 375.747 306.854C378.437 307.259 387.852 303.454 395.922 289.854C406.009 272.854 388.659 225.092 381.8 217.402C374.94 209.711 381.249 208.724 343.302 189.215C311.023 172.619 286.41 209.048 286.41 228.881C286.41 248.714 266.639 264.5 264.219 266.524C261.798 268.548 280.364 277.857 276.732 297.691C273.559 315.024 265.838 322.373 264.628 324C280.904 321.255 305.585 289.337 314.777 261.15Z" fill="#FFD1AF" stroke="#FFD1AF" stroke-width="4" stroke-linecap="round"/>
<path d="M207 455C217.652 461.978 261.4 475.284 273 471.256" stroke="#FFD1AF" stroke-width="4" stroke-linecap="round"/>
<path d="M375 209C391.68 224.77 410.801 280.327 386.391 302" stroke="#FFD1AF" stroke-width="2" stroke-linecap="round"/>
<path d="M404.855 198.928L405.294 198.703L404.824 197.788L404.404 198.708L404.855 198.928ZM406.799 202.71L407.295 202.713L407.293 202.593L407.238 202.485L406.799 202.71ZM407.255 229.359L407.275 229.862C407.544 229.857 407.756 229.635 407.751 229.361L407.255 229.359ZM403.492 229.429L402.996 229.426L403.005 229.942L403.512 229.933L403.492 229.429ZM403.038 202.908L402.587 202.688L402.54 202.791L402.542 202.906L403.038 202.908ZM404.855 198.928L404.417 199.153L406.36 202.936L406.799 202.71L407.238 202.485L405.294 198.703L404.855 198.928ZM406.799 202.71L406.303 202.708L406.759 229.356L407.255 229.359L407.751 229.361L407.295 202.713L406.799 202.71ZM407.255 229.359L407.235 228.855L403.472 228.925L403.492 229.429L403.512 229.933L407.275 229.862L407.255 229.359ZM403.492 229.429L403.988 229.431L403.534 202.911L403.038 202.908L402.542 202.906L402.996 229.426L403.492 229.429ZM403.038 202.908L403.489 203.128L405.306 199.148L404.855 198.928L404.404 198.708L402.587 202.688L403.038 202.908Z" fill="white"/>
<path d="M407.161 228.734L407.346 231.306L403.583 231.382L403.305 229.743" stroke="white"/>
<path d="M407.068 231.276C407.149 231.564 407.218 232.226 406.838 232.566C406.458 232.906 405.015 232.925 404.341 232.892C404.117 232.881 403.669 232.743 403.677 232.276C403.685 231.81 403.664 231.034 403.653 230.705" stroke="white"/>
<path d="M405.631 211.186L405.347 206.339L404.571 206.274L404.8 211.3L405.631 211.186Z" stroke="white" stroke-width="0.5"/>
<path d="M404.052 178.185L404.552 178.165L404.542 177.932L404.357 177.79L404.052 178.185ZM396.762 172.565L396.263 172.537L396.249 172.8L396.457 172.961L396.762 172.565ZM397.316 162.601L397.032 162.189L396.83 162.328L396.816 162.573L397.316 162.601ZM406.102 156.2C405.136 155.088 403.452 154.97 402.34 155.937C401.229 156.903 401.111 158.587 402.077 159.699C403.043 160.81 404.728 160.928 405.839 159.962C406.951 158.996 407.068 157.311 406.102 156.2ZM404.879 198.495L405.379 198.474L404.552 178.165L404.052 178.185L403.552 178.206L404.38 198.515L404.879 198.495ZM404.052 178.185L404.357 177.79L397.068 172.169L396.762 172.565L396.457 172.961L403.747 178.581L404.052 178.185ZM396.762 172.565L397.262 172.593L397.815 162.628L397.316 162.601L396.816 162.573L396.263 172.537L396.762 172.565ZM397.316 162.601L397.599 163.013L404.373 158.361L404.09 157.949L403.806 157.537L397.032 162.189L397.316 162.601Z" fill="white"/>
<path d="M405.527 210.301L404.662 210.228" stroke="white" stroke-width="0.5"/>
<path d="M406.572 203.208L403.318 203.151" stroke="white"/>
<path d="M123.799 479.551L123.35 479.769L123.788 480.668L124.237 480.449L124.018 480L123.799 479.551ZM163.018 461L157.259 460.595L159.788 465.785L163.018 461ZM124.018 480L124.237 480.449L159.192 463.42L158.973 462.971L158.754 462.521L123.799 479.551L124.018 480Z" fill="white"/>
<path d="M132.018 433L129.132 438H134.905L132.018 433ZM131.518 518C131.518 518.276 131.742 518.5 132.018 518.5C132.294 518.5 132.518 518.276 132.518 518H132.018H131.518ZM132.018 437.5H131.518V518H132.018H132.518V437.5H132.018Z" fill="white"/>
<path d="M124.018 480L92.0183 494" stroke="white" stroke-width="0.5" stroke-linecap="round" stroke-dasharray="1 1"/>
<path d="M110.975 498L94.0183 492.832V470.147M110.975 498L124.018 490.509V468.828M110.975 498V473.785M124.018 468.828L110.975 466L94.0183 469.871V470.147M124.018 468.828L110.975 473.785M110.975 473.785L94.0183 470.147" stroke="#FFD1AF" stroke-width="2" stroke-linecap="round"/>
<path d="M90 495L87 496.5" stroke="white" stroke-linecap="round"/>
<path d="M285.158 210.791C288.735 197.238 304.389 186.549 313 182.696C303.461 179.905 297.102 177.115 284.782 186.283C271.915 195.858 280.462 228.584 285.158 210.791Z" fill="#FFD1AF" stroke="#FFD1AF" stroke-linecap="round"/>
<path d="M137.938 255.457C146.862 246.836 165.031 248.672 173 250.667C142.719 252.583 126.383 271.687 122 281C123.594 276.078 129.013 264.078 137.938 255.457Z" fill="#FFD1AF" stroke="#FFD1AF" stroke-linecap="round"/>
<path d="M233.982 304.125L217.176 308.316L221.95 291.666L233.982 304.125Z" fill="#FFD1AF" stroke="#FFD1AF" stroke-miterlimit="1" stroke-linejoin="round"/>
<path d="M373 34C372.448 34 372 34.4477 372 35C372 35.5523 372.448 36 373 36V35V34ZM481 35H482C482 34.4477 481.552 34 481 34V35ZM480.293 82.7071C480.683 83.0976 481.317 83.0976 481.707 82.7071L488.071 76.3431C488.462 75.9526 488.462 75.3195 488.071 74.9289C487.681 74.5384 487.047 74.5384 486.657 74.9289L481 80.5858L475.343 74.9289C474.953 74.5384 474.319 74.5384 473.929 74.9289C473.538 75.3195 473.538 75.9526 473.929 76.3431L480.293 82.7071ZM373 35V36H481V35V34H373V35ZM481 35H480V82H481H482V35H481Z" fill="#135C99"/>
<path d="M149 618C149.552 618 150 617.552 150 617C150 616.448 149.552 616 149 616V617V618ZM41 617H40C40 617.552 40.4477 618 41 618V617ZM41.7071 569.293C41.3166 568.902 40.6834 568.902 40.2929 569.293L33.9289 575.657C33.5384 576.047 33.5384 576.681 33.9289 577.071C34.3195 577.462 34.9526 577.462 35.3431 577.071L41 571.414L46.6569 577.071C47.0474 577.462 47.6805 577.462 48.0711 577.071C48.4616 576.681 48.4616 576.047 48.0711 575.657L41.7071 569.293ZM149 617V616H41V617V618H149V617ZM41 617H42V570H41H40V617H41Z" fill="#135C99"/>
<path d="M156 617H162" stroke="#135C99" stroke-width="2" stroke-linecap="round"/>
<path d="M360 35H366" stroke="#135C99" stroke-width="2" stroke-linecap="round"/>
<rect x="419" y="595" width="22" height="22" fill="#135C99"/>
<rect x="303" y="615" width="101" height="2" fill="#135C99"/>
<rect x="86" y="35" width="22" height="22" fill="#135C99"/>
<rect x="41" y="35" width="33" height="47" fill="#135C99"/>
<rect x="127" y="35" width="146" height="2" fill="#135C99"/>
<rect x="456" y="570" width="33" height="47" fill="#135C99"/>
<rect width="33" height="6" transform="matrix(1 0 0 -1 456 566)" fill="#135C99"/>
</svg>
